<?xml version="1.0" encoding="utf-8"?>
<!-- Generator: Adobe Illustrator 24.3.0, SVG Export Plug-In . SVG Version: 6.00 Build 0)  -->
<svg version="1.1" id="Layer_1" xmlns="http://www.w3.org/2000/svg" xmlns:xlink="http://www.w3.org/1999/xlink" x="0px" y="0px"
	 viewBox="0 0 128 128" style="enable-background:new 0 0 128 128;" xml:space="preserve">
<style type="text/css">
	.st0{fill:#FAA31B;}
	.st1{fill:#FFFFFF;}
	.st2{fill:#13213C;}
</style>
<polygon class="st0" points="32.48,118.73 0.89,64.4 32.48,10.07 95.66,10.07 127.25,64.4 95.66,118.73 "/>
<path class="st1" d="M75.57,39.43l18.27,53.48c2.87,8.4-3.37,17.13-12.25,17.13H45.06c-8.87,0-15.12-8.73-12.25-17.13l18.27-53.48
	C55.07,27.75,71.58,27.75,75.57,39.43z"/>
<g>
	<g>
		<path class="st2" d="M21.81,64.53l30.3-14.06v7.95l-22.33,9.78v0.15l22.33,9.78v7.95L21.81,72V64.53z"/>
		<path class="st2" d="M52.8,97.01l13.51-58.14h7.4L60.2,97.01H52.8z"/>
		<path class="st2" d="M104.67,72l-30.3,14.06v-7.95l22.33-9.78v-0.15l-22.33-9.78v-7.95l30.3,14.06V72z"/>
	</g>
</g>
<g>
	<g>
		<path class="st0" d="M68.14,93.18l1.77,0.02l-0.08,9.5l-1.77-0.02L68.14,93.18z M68.96,100.97l2.25,0.02
			c0.58,0.01,1.03-0.13,1.35-0.41c0.32-0.28,0.48-0.68,0.49-1.2l0.02-2.8c0-0.52-0.15-0.92-0.47-1.21
			c-0.32-0.29-0.76-0.43-1.35-0.44l-2.25-0.02l0.01-1.73l2.22,0.02c0.78,0.01,1.45,0.15,2,0.42c0.55,0.27,0.97,0.67,1.25,1.18
			s0.42,1.13,0.42,1.85l-0.02,2.69c-0.01,0.68-0.15,1.28-0.43,1.79s-0.7,0.9-1.26,1.18c-0.56,0.28-1.24,0.41-2.05,0.4l-2.21-0.02
			L68.96,100.97z"/>
		<path class="st0" d="M76.82,93.28l1.77,0.02l-0.08,9.5l-1.77-0.02L76.82,93.28z M77.39,101.06l5.65,0.06l-0.01,1.73l-5.65-0.06
			L77.39,101.06z M77.42,97.21l4.94,0.05l-0.01,1.73l-4.94-0.05L77.42,97.21z M77.46,93.28l5.65,0.06l-0.01,1.73l-5.65-0.06
			L77.46,93.28z"/>
		<path class="st0" d="M83.76,93.35l1.82,0.02l1.94,6.36l2.05-6.32l1.82,0.02l-3.21,9.47l-1.38-0.02L83.76,93.35z"/>
	</g>
</g>
</svg>
