<?xml version="1.0" encoding="UTF-8"?>
<svg version="1.1" viewBox="0 0 1380 920" width="1380" height="920" xmlns="http://www.w3.org/2000/svg">
<path transform="translate(0)" d="m0 0h1380v920h-1380z" fill="#414D94"/>
<path transform="translate(839,428)" d="m0 0h117l9 1 1 7v148l5 2 26 26 2 1v2h2v2l4 2 8 9 1 12v152l-1 11-3 5-5 4-4 2h-154l-3-12-4-6-8-4-7-2v-57h-87v-21l4-56h-38l-12 2-3 2-5-1-3-2-10-1v135h-106l-13 2-2 3-1 18h-50v-101h-45v-1l14-1v-28l-1-28h182l-5-11-6-10-7-6-8-4-7-2h-16l-10 4-8 6-3-1-7-12-9-8-11-4h-17l-14 7-7 7-4 7-6-2-5-2-11-1-11 3-9 6-6 8-2 2-3-7v-13l-5-31-4-11-8-8-5-12-2-9v-16l4-9 6-8 2-3 5 15 6 9 8 6 8 3 8 1 179 1v-28l3-10 6-5 18-6 6-5h2v-16l-3-1-5-8-3-8v-7l6-9 3-6 4-3 8-1h33l3 3v6l-4 6-4 3h-2v28l-4 9-4 2h-10l1 7 9 6 13 11 8 9 4 11 1 12 41-1h30l10-3 6-5 3-6 1-7z" fill="#10A4AB"/>
<path transform="translate(458,174)" d="m0 0h6v37l14 1 15 4 12 5 12 7 14 12 9 11 8 14 5 13 3 13 1 11h35v7l-29 1h-39l-1 11-5 15-7 11-12 12-14 8-14 4h-6v56l1 11 3 1 1 17v54l63 1 2 2h7l4-2h19l8 7 3 3 4-2 10-9h25l7 1 2-4-1-5-2-2-5 1-2 2-24 1-7-6v-2l-4-2v-2l-5 3-7 7-2 1h-19l-5-3-8 1v2h-55l-1-65 24-7 15-6 15-9 9-7 10-9 8-8 11-15 10-18 8-21 5-22 23-8h8l5-1h68l1 9h4l1-1 1-8h108l1-35h-37v-10h70v6l-2 3-3 1-1 5v51l-18 12-9 7 10 8 16 11 2 3v159l-2 9-4 6-5 4-10 3h-71l-3-16-5-10-9-9-9-7-5-4-5-3v-7l10-1 4-2 3-8 1-28 7-5 2-4v-8h-35l-10 2-3 4-4 8-3 4v7l5 12 5 5v16l-6 4-4 3-16 5-5 4-3 10-1 28h-179l-11-2-8-4-8-7-6-11-2-13-1-66-12-3-16-7-13-8-1-3-2-1 5 1 21 8 20 4h11v-66l-17-4-16-8-11-10-7-11-5-12-4-16v-2h-64l-1-1v-6l63-1h3l2-11 5-13 7-10 5-6 12-9 11-5 10-3h8z" fill="#0E276C"/>
<path transform="translate(839,585)" d="m0 0h130l8 7 20 20 2 1v2h2v2l4 2 8 9 1 12v152l-1 11-3 5-5 4-4 2h-154l-3-12-4-6-8-4-7-2v-57h-87v-21l2-31 1-9 3-3h18l10 3 11 6 7 6 7 10 5 12 8-6 10-4h5l-1-40v-33l1-23 2-7 5-5z" fill="#FAFBFB"/>
<path transform="translate(704,655)" d="m0 0h21l17 1v13l-3 43v20h80l6 1v57l7 1 8 4 5 7 2 12 154-1 4-2h76l15 2 16 1h11l18-2 3-1h33l9 2 4 3-1 8-5 4-8 1h-973l-9-4-4-6-1-5 23-1 337 1v-18l3-4 13-2 106 1v-135h10l5 3 5-1 4-2z" fill="#0E286C"/>
<path transform="translate(360,632)" d="m0 0h22l23 1 1 2 1 36 46 1 1 1v40h45l1 3v95l-1 3h-284l-1-1v-48l47-1 2-19v-24l1-1 11-1 35-1 1-1 1-37 1-1h44l1-44z" fill="#F6724A"/>
<path transform="translate(1132,454)" d="m0 0h22l19 4 10 3 16 8 13 9 10 9 10 13 8 16 5 15 2 12v23l-4 19-5 14-8 14-9 11-11 11-13 9-13 7-16 5-14 3h-26l-17-4-16-7-13-8-13-11-9-11-7-11-6-12-5-19-2-13v-12l3-19 5-15 8-15 8-10 9-10 12-10 15-9 16-6z" fill="#FAFBFB"/>
<path transform="translate(839,428)" d="m0 0h117l9 1 1 7v148l2 1-16 1h-113l-7 3-4 4-2 7-1 23v73l-11 3-10 6-3 2-5-13-8-11-10-7-8-4-8-2h-20l-1 2 1-16 4-3 1-4v-98l1-1 41-1h30l10-3 6-5 3-6 1-7z" fill="#10A4AB"/>
<path transform="translate(991,270)" d="m0 0 2 1 1 25-1 12v15h28l2 5v20h20l1 4 1 142 7-8 8-10 10-10 14-10 16-8 14-5 16-3h30l16 3 19 7 14 7 17 14 10 11 10 14 9 19 4 14 3 19v14l-2 16-6 20-10 20-10 13-11 12-13 10-16 9-15 6-16 4-8 1h-25l-16-3-18-6-17-9-12-9-15-15-8-12-6-10-5-12-4-13-2-11v-30l3-15 7-18 2-6h-73l-1-75h-9l-4-1-1-76 4-4 16 1 1-5v-20l1-1h16v-50zm141 184-16 3-16 6-15 9-13 11-11 12-9 14-7 16-4 17-1 9v12l4 22 3 10 10 19 8 10 7 8 14 11 17 9 15 5 10 2h26l22-5 9-4 14-7 13-10 12-12 9-13 6-12 4-11 4-19v-23l-3-15-4-12-8-16-11-14-10-9-14-9-10-5-11-4-17-4-5-1z" fill="#20347A"/>
<path transform="translate(986,127)" d="m0 0h16l12 3 11 6 12 11 4 6 6 12h16l12 3 9 5 7 6 6 9 3 10 1 2 12 2 10 5 7 7 4 8 2 7v5l-2 2h-214l-10-3-11-9-4-7-2-9v-8l5-12 7-8 9-5 5-1 19-1 5-12 4-9 9-10 7-6 10-6z" fill="#F9FBFB"/>
<path transform="translate(196,424)" d="m0 0h12l15 4 10 6 10 10 5 7v2h2l5 15 1 5v8h2v-2l9-6 8-2h10l9 3 9 7 6 9 2 7v11l-5 12-7 8-10 4-7 1h-145l-12-4-14-13-6-12-1-4v-17l4-11 7-9 7-6 9-5 10-2 14-1 7-9 13-10 10-4z" fill="#FBFBFB"/>
<path transform="translate(704,437)" d="m0 0h33l3 3v6l-4 6-4 3h-2v28l-4 9-4 2h-10l1 7 9 6 13 11 8 9 4 11 1 13v98l-2 5-2 2h-40l-12 2-3 2-5-1-3-2-17-1-4-3-1-6v-125l3-10 6-5 18-6 6-5h2v-16l-3-1-5-8-3-8v-7l6-9 3-6 4-3z" fill="#55C0D6"/>
<path transform="translate(799,88)" d="m0 0h21l16 5 11 6 7 6 4 4 5 6v2h2l6 11 4 13 2 8v16l-4 14-8 13-3 5-9 12-4 5-1 3-4 4-4 7-1 2h-55l-7-6-1-4-3-1-4-6-6-8-8-10-8-13-4-9-2-8v-20l3-9 2-8 4-8h2v-3h2l2-5 8-7 5-5h3v-2h3v-2l15-6z" fill="#F9B451"/>
<path transform="translate(456,174)" d="m0 0h1v37l-19 3-19 7-14 9-10 9-9 10-9 16-5 13-3 14-1 9h-35v-15l2-9h-87l-9-3-5-3-7-7-3-8v-14l3-7 6-7 6-4 6-2h14l5 2h3l3-11 8-12 9-8 11-5 8-2h12l13 4 9 6 8 8 7 12 3 9 9-10 5-5 11-10 6-4h2v-2l22-11 21-6z" fill="#FAFBFB"/>
<path transform="translate(1e3 811)" d="m0 0h76l15 2 16 1h11l18-2 3-1h33l9 2 4 3-1 8-5 4-8 1h-973l-9-4-4-6-1-5 23-1 338 1h296l1-2v2l154-1z" fill="#20337A"/>
<path transform="translate(563,309)" d="m0 0h25l4 1v9l-5 22-8 20-9 16-9 12-9 10-9 9-12 9-17 10-19 7-18 4 1 4v61h55v-2l4-2 6 1 3 2h19l8-7 3-3h3l7 8 4 3 24-1 4-3 4 1 3 4-1 6-2 2-14-1h-18l-12 11-4-2-7-7-2-1h-19l-4 2h-7l-2-2-56-1-7-1-1-54v-17l-4-1-1-18 1-49 14-3 12-5 10-7 5-5h2l2-4 7-11 5-15 2-11z" fill="#16B7B1"/>
<path transform="translate(407,672)" d="m0 0h46l1 1v40h45l1 3v95l-1 3h-45l-3-1-45-1v-139z" fill="#FAB34F"/>
<path transform="translate(381,502)" d="m0 0 4 2 6 9 4 10 2 13h9l1 1v28h13l1 8v22h13l1 1v47l-2 15-2 11v2h23l-1 2-46-1-1-1-1-38h-45l-1 2-1 44-1 1h-10l-5-5-8-16-4-15-2-16v-33h16v-30h13v-29h10l2-14 7-14z" fill="#15B7B1"/>
<path transform="translate(693,342)" d="m0 0h11l18 2 20 6 16 8 11 7 13 10 8 7-1 3-17 13-14 9-16 8-15 5-10 2-10 1h-15l-15-2-17-5-16-7-16-10-14-11-4-4 2-4 12-11 15-10 16-8 18-6z" fill="#54C0D6"/>
<path transform="translate(332,309)" d="m0 0h65l7 24 6 11 7 9 9 7 14 7 17 4 1 1v66l-1 1h-11l-23-5-20-8-16-11-12-9-11-11-11-15-11-21-6-19-3-15z" fill="#FBFBFB"/>
<path transform="translate(1130,440)" d="m0 0h30l16 3 19 7 14 7 17 14 10 11 10 14 9 19 4 14 3 19v14l-2 16-6 20-10 20-10 13-11 12-13 10-16 9-15 6-16 4-8 1h-25l-16-3-18-6-17-9-12-9-15-15-8-12-6-10-5-12-4-13-2-11v-30l3-15 7-18 4-8 5-9 6-7 8-10 10-10 14-10 16-8 14-5zm2 14-16 3-16 6-15 9-13 11-11 12-9 14-7 16-4 17-1 9v12l4 22 3 10 10 19 8 10 7 8 14 11 17 9 15 5 10 2h26l22-5 9-4 14-7 13-10 12-12 9-13 6-12 4-11 4-19v-23l-3-15-4-12-8-16-11-14-10-9-14-9-10-5-11-4-17-4-5-1z" fill="#10286D"/>
<path transform="translate(1121,706)" d="m0 0h49l9 4 8 7-2 4-7 6-10 3h-43v24l65 1v7l-2 9-8 13-9 10-10 9h-2v2l-18 8-18 2h-11l-24-2-11-2-14-7v-2l-4-1v-2l-5-2-3-3v-3l-3-1-8-14v-2h-2l-3-7-2-12 70-1v-31l4-11 4-4z" fill="#F9B251"/>
<path transform="translate(270,599)" d="m0 0 4 2 9 13 8 17 4 15 1 9v15l-3 17-6 15-9 13-3 4v1l-11 1v24l-1 7-3-3-2-7v-15l4-20 8-24 14-36 2-7-2-1-2 6-17 46-8 24h-2l-4-27v-30l3-15 6-19-3 1-6 19-2 10-1 12v14l2 19 5 28v12l-4-5-10-12v-2l-4-2-10-8-13-9-16-8-14-4h-8l6 3 16 4 17 9 16 12 12 11 9 12-3 1-17-8-33-11-12-2v3l12 2 33 11 18 8 7 5 3 6v4h-14l-12-2-12-4-14-7-11-8-9-8-11-15-6-13-5-17-2-13v-6h9l18 5 17 8 14 10 10 9v-32l3-15 4-12 7-14 8-11 6-7h2v-2z" fill="#16B7B1"/>
<path transform="translate(313,679)" d="m0 0h34l11 1v2h-44v37l-1 2v89l2 1h43l93 1 3 2h-239l-1-1v-48l47-1 2-19v-24l1-1 11-1 35-1 1-1 1-37z" fill="#E88E83"/>
<path transform="translate(535,606)" d="m0 0h17l11 4 10 9 7 12 5-2 9-6 6-2h16l10 3 10 7 7 9 5 10 1 5h-193l5-15 6-8 8-6 8-3 10-1 9 2 8 4 2-5 7-8 9-6z" fill="#0E276C"/>
<path transform="translate(465,175)" d="m0 0h10l20 4 18 6 21 11 13 10 16 16 4 5v2h2l2 6h2l6 12 4 7 6 18 3 18v12h-35l-5-24-6-15-7-12-12-14-13-10-15-8-16-5-18-3z" fill="#FBFBFB"/>
<path transform="translate(317,681)" d="m0 0 41 1 1 38v37l-1 54-2 1h-41l-3-2v-89l1-2 1-37z" fill="#F2415D"/>
<path transform="translate(665,674)" d="m0 0h6v58l-1 1-134-1 1-12 4-9 7-8 9-4h12l8 3 5-10 6-7 12-6 5-1h7l10 3 6 4 7 8 3 3 2-5 6-8 9-6z" fill="#BAE3F5"/>
<path transform="translate(949,353)" d="m0 0h3v75h-113v-59h3l18 13 20 14 5 2 8-4 5-4 16-12 13-9 20-14z" fill="#414D94"/>
<path transform="translate(786,138)" d="m0 0h9l10 6 3 4 4-2 5-5 6-3h11l8 5 4 5 2 4v16l-4 12-8 19-6 20-2 10 4 1h-46l3-1-4-18-6-18-6-15-3-10v-14l4-8 7-6z" fill="#FCEDE0"/>
<path transform="translate(502,744)" d="m0 0h90v46l-27 1-13 2-2 3-1 18h-50v-28l1-2 1-39z" fill="#16B7B2"/>
<path transform="translate(381,504)" d="m0 0h1v103l1 24 23 1 1 1 1 37 20 1v1h-21l-1-1-1-38h-45l-1 2-1 44-1 1h-10l-5-5-8-16-4-15-2-16v-33h16v-30l14-1 1-25 4-2h5l4-19 7-12z" fill="#59CCCB"/>
<path transform="translate(739,732)" d="m0 0h80l6 1v57h-69l-6-7-15-9v-11l2-27z" fill="#11A4AB"/>
<path transform="translate(1133,511)" d="m0 0h15l10 3 10 6 8 9 5 11 1 4v16l-4 12-7 9-7 6-10 5-4 1h-17l-13-5-12-11-7-14-2-9v-7l2 3 3 5 4 2h7l4-2 3-7-1-6-2-4-3-2h-9l-3 1-2 5-2 2 1-6 6-11 7-7 8-5z" fill="#18B7B2"/>
<path transform="translate(407,672)" d="m0 0h46l1 1v40h45l1 3v95l-1 3h-45l-3-2h2v-97l-1-3-1-37-44-1z" fill="#FACC72"/>
<path transform="translate(744,669)" d="m0 0h18l10 3 11 6 7 6 7 10 5 12 8-6 10-4h5v37h-87v-21l2-31 1-9z" fill="#B9E2F4"/>
<path transform="translate(775,262)" d="m0 0h70v6l-2 3-3 1-1 5v51l-18 12-9 7-14-3-19-10-10-7-15-12v-2l-4-2-1-2-46-1v-1h108l1-35h-37z" fill="#23377D"/>
<path transform="translate(884,296)" d="m0 0 3 3h-2v100l-5-2-20-14-19-14-16-11-14-10 5-5 12-9 24-16 18-13z" fill="#FAFAFA"/>
<path transform="translate(465,211)" d="m0 0 13 1 15 4 12 5 12 7 14 12 9 11 8 14 5 13 3 13 1 11h-33l-5-18-7-13-8-10-13-9-12-5-14-3z" fill="#EE5C80"/>
<path transform="translate(454,272)" d="m0 0h10l10 2 9 6 8 9 4 10v15l-4 11-6 8-11 7-6 2h-14l-11-4-9-7-5-8-3-11v-11l4-11 6-8 8-6z" fill="#F9FAFB"/>
<path transform="translate(524,310)" d="m0 0h32v8l-4 18-6 15-6 10-7 9-3 4h-2v2l-7 6-3 3-11 7-8 4-14 5-5 1h-14l-1 4v-35l14-3 12-5 10-7 5-5h2l2-4 7-11 5-15z" fill="#10A4AB"/>
<path transform="translate(885,299)" d="m0 0 6 1 10 7 8 5v2l4 1 9 6v2l4 1 9 6v2l4 2 7 4v2l4 2 6 4-2 5-14 10-34 24-8 6-10 7h-3z" fill="#F1415D"/>
<path transform="translate(368,309)" d="m0 0h29l7 24 6 11 7 9 9 7 14 7 17 4 1 1v66h-1v-35l-14-1-16-5-16-8-12-9-10-10-10-15-7-17-4-18z" fill="#EC5D81"/>
<path transform="translate(1192,352)" d="m0 0h13l11 4 10 9 4 7 2 8v15l-4 11-6 7-14 7-11 1-11-2-8-4-9-7-4-9-2-5v-14l5-12 7-8 10-6z" fill="#A471A8"/>
<path transform="translate(1121,706)" d="m0 0h49l9 4 8 7-2 4-7 6-10 3h-43v24l65 1v7l-2 9-4 6-1-3 2-4v-5l-147-1 1 6v2h2l4 9-3-1-2-6h-2l-3-7-2-12 70-1v-31l4-11 4-4z" fill="#F9CA72"/>
<path transform="translate(448,211)" d="m0 0h9v32l-7 2-15 5-12 7-8 7-7 10-5 10-5 17-6 1h-14l-10-1v-9l4-17 7-16 7-11 9-10 7-7 15-10 15-6z" fill="#EE5C80"/>
<path transform="translate(191,562)" d="m0 0h17l10 4 8 7 7 14v15l-4 10-8 9-9 5-2 1h-18l-10-5-8-7-6-12-1-3v-11l3-9 5-8 7-6z" fill="#EA5D82"/>
<path transform="translate(704,437)" d="m0 0h33l3 3v6l-4 6-4 3h-2v28l-4 9-4 2h-10l1 7 3 2-1 4-8 8-5-2-16-10 2-4 4-3h2v-16l-3-1-5-8-3-8v-7l6-9 3-6 4-3z" fill="#FBECE0"/>
<path transform="translate(272,349)" d="m0 0h3l1 16 37 1v27l-37 1-1 14-3 1-40-24-8-5 2-4 23-13z" fill="#F4734E"/>
<path transform="translate(1101,374)" d="m0 0h14l10 5 8 9 3 9v13l-3 8-6 8-6 4-6 2h-14l-9-4-7-6-5-10-1-5v-8l3-9 4-6 8-7z" fill="#18B7B2"/>
<path transform="translate(540,745)" d="m0 0h51l1 45-27 1-13 2-2 3-1 18h-10z" fill="#59CCCB"/>
<path transform="translate(262,765)" d="m0 0h1v48h-46l-2-1v-45l1-1z" fill="#F15B7F"/>
<path transform="translate(1165,245)" d="m0 0 5 1 10 7v2l4 1v2h3l4 4 5 3 9 9v2h-2v2l-3 2h-3v2l-6 4-14 11-11 6-1-2-1-13-36-1-1-2v-20l1-1h37z" fill="#F9B354"/>
<path transform="translate(311,498)" d="m0 0 4 4 4 10-1 11-4 8-5 6-12 6h-154l-12-6-6-7 2-1 10 3h145l10-2 8-4 6-8 4-10z" fill="#22347A"/>
<path transform="translate(696,265)" d="m0 0h6l2 6v14l-1 15 18-1h83v-27h8v33l-1 2h-108v8l-3 3-4-2v-9l-68 1-10 1-4-3v-6l3-2h9l5 1h64v-31z" fill="#F7F9FA"/>
<path transform="translate(474,438)" d="m0 0h3l1 4v61h55v-2l4-2 6 1 3 2h19l8-7 3-3h3l7 8 4 3 24-1 4-3 4 1 3 4-1 6-2 2-14-1h-18l-12 11-4-2-7-7-2-1h-19l-4 2h-7l-2-2-56-1-7-1v-71z" fill="#EAF5F7"/>
<path transform="translate(885,299)" d="m0 0 6 1 10 7 8 5v2l4 1 9 6v2l4 1 9 6v2l4 2 7 4v2l4 2 3 3-4 2h-62l-2-1z" fill="#F8B053"/>
<path transform="translate(1121,706)" d="m0 0h49l9 4 8 7-2 4-7 6-10 3h-43l-1 6h-1l-1-5h-16v15h-1l-2-21 3-11 5-6z" fill="#FAFBFB"/>
<path transform="translate(701,673)" d="m0 0h12v113l-9-6-10-5v-16z" fill="#16B8B2"/>
<path transform="translate(786,145)" d="m0 0h8l5 3 5 8 2 15v56l-1 2h-8l-3-9-6-21-11-30-1-4v-7l3-8 5-4z" fill="#F9B552"/>
<path transform="translate(824,145)" d="m0 0h9l6 4 3 6v8l-4 15-7 15-6 19-3 15-1 2h-9v-69l4-9 6-5z" fill="#F9B552"/>
<path transform="translate(1230,379)" d="m0 0 2 1v15l-4 11-6 7-14 7-11 1-11-2-8-4-9-7-4-9-2-5v-13l3-1 14 9 13 10 6 5 4-2 9-7 9-8 6-5z" fill="#A471A8"/>
<path transform="translate(991,270)" d="m0 0 2 1 1 25-1 12v15h28l2 5v16l-2 4-4 1h-45v-25l1-1h16v-50z" fill="#0F276C"/>
<path transform="translate(1134,222)" d="m0 0 4 4 1 3v13l-3 1-212-1-9-3-4-3 1-2 8 1h214l1-1z" fill="#0E276C"/>
<path transform="translate(257,624)" d="m0 0h3l-2 10-5 17-1 7v30l3 22v5h2l2-9 11-32 11-29 3-6 3 1-6 18-14 36-6 21-2 12v15l3 8v8l-4-5-3-5-16-8-21-8-19-6-12-3v-3h7l15 4 28 10 12 6 1-1-8-11-7-7-17-13-16-9-11-4-12-3-4-4h9l16 5 16 8 12 9 13 10 10 13 3 4v-10l-6-34-1-13v-14l2-18 6-21z" fill="#09376B"/>
<path transform="translate(275,354)" d="m0 0h6l2 3v7h29l3 3v7h6l1 1v30h-38l-1 16-5-2-31-19-19-12 2-2h6l36 22h2l1-14 1-1h37v-27h-37l-1-1z" fill="#22347B"/>
<path transform="translate(694,360)" d="m0 0h7l8 3 7 8 2 5v9l-4 8-8 6-2 1h-11l-8-4-6-9-1-9 3-9 8-7z" fill="#F8FAFB"/>
<path transform="translate(704,437)" d="m0 0h33l3 3v6l-4 6-4 3h-2l-1 2-1-1-17 1-3 1-4 12-2 2h-3l-2-3-5 1 1 10-5-5-5-12v-7l6-9 3-6 4-3z" fill="#F6734D"/>
<path transform="translate(775,230)" d="m0 0h67l3 2v13h-70z" fill="#12296E"/>
<path transform="translate(236,274)" d="m0 0 7 1 5 1 87 1-2 12h-61l-19-1-10-5-7-8z" fill="#1F3379"/>
<path transform="translate(1153,479)" d="m0 0 11 1 12 5 12 7 12 12 9 14 5 10v2l9-1-1 6-9 12-4-1-9-6-6-3v-2l11-2-4-11-7-11-7-8-12-8-13-5-8-2z" fill="#1BB6B2"/>
<path transform="translate(1067,565)" d="m0 0h9l4 9 4 12 7 11 11 11 14 8 16 5 7 1 1 1v8l-1 1-11-1-15-5-11-6-10-8-8-8-9-14-7-19z" fill="#EE4663"/>
<path transform="translate(190,574)" d="m0 0h7l5 3 2 5-1 7 9 2 5 5 1 2v8l-6 7-4 2-9-1-4-4-1-6 2-6h-9l-6-4-1-2v-9l6-7z" fill="#FCF8F5"/>
<path transform="translate(192,724)" d="m0 0 11 2 29 10 18 8 6 7 1 5-1 1-16-1-15-4-9-4-13-8-12-11z" fill="#16B7B1"/>
<path transform="translate(576,492)" d="m0 0h3l7 8 4 3 24-1 4-3 4 1 3 4-1 6-2 2-14-1h-18l-12 11-4-2-7-7-2-1-18-1v-8l18-1 8-7z" fill="#F37256"/>
<path transform="translate(853,693)" d="m0 0h135l2 1-1 4-1 1h-133l-2-2z" fill="#192F73"/>
<path transform="translate(270,599)" d="m0 0 4 2 9 13 8 17 4 15 1 9v15l-3 17-6 15-9 13-3 4v1l-11 1v24l-1 7-3-3-2-7v-15l4-20 4-13 3-2-6 24h8l6-2 1-4 4-6 7-16 3-12v-28l-4-16-8-16-8-12-5 1-10 10-8 11-9 19-3 10-2 13v32l-2-4-1-3v-27l3-15 4-12 7-14 8-11 6-7h2v-2z" fill="#23AAAF"/>
<path transform="translate(775,248)" d="m0 0h70v11h-70z" fill="#0F286D"/>
<path transform="translate(1232,378)" d="m0 0h2l3 8 1 10-2 11-5 9-5 6-10 6-7 2h-15l-10-4-8-6v-2h-2l-4-8h3l10 7 6 2 11 1 11-2 11-6 6-8 3-9z" fill="#122A6F"/>
<path transform="translate(701,673)" d="m0 0 11 1v59l-15-1 1-20z" fill="#B7E2F4"/>
<path transform="translate(993,280)" d="m0 0 7 1 9 2h18l2 6-1 13-1 1h-14l-18 3-2-1z" fill="#F2415D"/>
<path transform="translate(854,651)" d="m0 0h131l5 1-1 4-91 1h-43l-1-1z" fill="#1B3173"/>
<path transform="translate(976,671)" d="m0 0 12 1 2 1-1 4-104 1h-30l-1-1v-5z" fill="#122A6F"/>
<path transform="translate(1188,374)" d="m0 0 4 1 2 4v4l-5 2 9 7 5-1 14-9 13-5-2 5-9 8-8 7-10 8-4-2-18-14-14-9v-1l20-4z" fill="#FBFAF9"/>
<path transform="translate(775,262)" d="m0 0h70v6l-2 3-39 1h-29z" fill="#0F276C"/>
<path transform="translate(164,666)" d="m0 0h9l18 5 17 8 14 10 7 6 3 6-4-2-5-5-9-6-6-5-14-7-13-5-15-3 5 24 6 16 6 10v2l4-2 12 1 17 5 10 4v2l-11-3-16-5-12-2v3l5 1 2 2-2 1 2 4 10 9 12 7 15 6 9 2 16 1-2-6-2-4 5 3 3 6v4h-14l-12-2-12-4-14-7-11-8-9-8-11-15-6-13-5-17-2-13z" fill="#23ABAF"/>
<path transform="translate(968,594)" d="m0 0 7 6 17 16 9 10v3h-34z" fill="#16B6B1"/>
<path transform="translate(1095,390)" d="m0 0h5l10 9 5 6h2l2-3h4l1 6-4 9-5 4h-6l-9-6-7-7-4-7 1-6z" fill="#F2F7F9"/>
<path transform="translate(1224,664)" d="m0 0 9 1 6 5 2 5-1 9-4 5-3 2h-11l-6-4-2-5v-9l4-6z" fill="#0F276D"/>
<path transform="translate(662,177)" d="m0 0h41v47h-7v-40h-34l-1-5z" fill="#FCFBFB"/>
<path transform="translate(446,517)" d="m0 0 2 1 4 13 6 7 2 1v2l5 2 6 3 7 1h177l2-1v-18l1-9h1v31h-179l-11-2-8-4-8-7-6-11z" fill="#1D3F7A"/>
<path transform="translate(1106,730)" d="m0 0h16l1 1v5h2v18l2 1h-23v-15l1-2v-7z" fill="#F9C96D"/>
<path transform="translate(1141,538)" d="m0 0 6 1 6 5 1 2v10l-4 5-5 3h-7l-6-4-2-3v-9l3-5 5-4z" fill="#0D296C"/>
<path transform="translate(677,615)" d="m0 0h20l1 3-4 1v27l-4-2-1-3-5 3-3 3h-2l-1-4v-24l-5-1 1-2z" fill="#FCECE0"/>
<path transform="translate(799,86)" d="m0 0h18l11 2 17 7 4 2v2l4 2 8 7 6 8v2l2 1 7 17 3 13v17l-1 4h-2v-21l-4-16-7-14v-2h-2l-7-9v-2l-5-2-5-5-15-7-11-3h-21l-12 3-10 4h-2v2h-3v2l-6 3-7 8-4 4-1 2h-2v3h-2l-2 6-4 9h-2l2-6 4-9 8-12 4-2 9-8 8-6 18-5z" fill="#544983"/>
<path transform="translate(695,479)" d="m0 0 3 4 4 8v2l7 2 3 3 2 4 2 1-1 4-8 8-5-2-16-10 2-4 6-4 1-3z" fill="#FBECE0"/>
<path transform="translate(1107,535)" d="m0 0h9l5 5 2 5-1 7-5 5-2 1h-7l-5-3-3-5 1-8 3-5z" fill="#F6F9FB"/>
<path transform="translate(1197,281)" d="m0 0 4 1 6 3-5 6-17 12-14 9-2-1v-10l12-8 11-9z" fill="#11296E"/>
<path transform="translate(697,229)" d="m0 0 8 2 5 5 1 8-3 5-5 3h-7l-6-4-2-4v-6l4-6z" fill="#E05F87"/>
<path transform="translate(420,596)" d="m0 0h15v47l-2 15-2 11v2h23l-1 2-45-2-1-1-1-37-23-1-1-5 2 2 22 1 3 3 1 35 18 1 1-8 3-18v-38l-1-6-11-2z" fill="#28ACB1"/>
<path transform="translate(855,714)" d="m0 0h69l-1 5-47 1h-20l-2-2z" fill="#162D71"/>
<path transform="translate(257,624)" d="m0 0h3l-2 10-5 17-1 7v30l3 22v5h2v9l-1-3-3-1-5-27-1-13v-14l2-18 6-21z" fill="#0A376C"/>
<path transform="translate(284,639)" d="m0 0 3 1-6 18-14 36-6 21-2 12-1 14-3-1-1-19h2l2-12 12-35 11-29z" fill="#07366A"/>
<path transform="translate(623,169)" d="m0 0h9l5 4 1 2v9l-5 5-7 1-5-3-3-6 1-8z" fill="#F8D28A"/>
<path transform="translate(187,720)" d="m0 0h7l15 4 28 10 12 6 8-1 3 7 2 4v8l-4-5-3-5-16-8-21-8-19-6-12-3z" fill="#0A376C"/>
<path transform="translate(292,682)" d="m0 0h1l-1 8-6 13-7 11-4 5v1l-11 1v24l-1 7-3-3-2-7v-15l4-20 4-13 3-2-6 24h8l6-2 1-4 4-6 7-16z" fill="#25ABB0"/>
<path transform="translate(704,673)" d="m0 0h9v113l-9-6-10-5v-16l2-22 1-5h14l1-58h-8zm-3 61-3 3-2 21v15l12 7h3l1-5-1-40-1-1z" fill="#38B4C0"/>
<path transform="translate(195,560)" d="m0 0h9l4 2-17 1-12 6-6 7-4 8-1 5v11l5 12 6 7 10 6 3 1h18l8-4 8-7 5-10 1-3v-15l-7-14-7-6h3l6 5 7 14 1 3v13l-8 16-13 9-6 2h-11l-10-2-10-7-4-4v-2l-3-1-4-11v-14l2-8 4-7 5-5 10-6z" fill="#49447E"/>
<path transform="translate(896,630)" d="m0 0h51l-1 6h-48z" fill="#183073"/>
<path transform="translate(1101,374)" d="m0 0h14l10 5 8 9 3 9v13l-3 8-6 8-6 4-6 2h-14l-9-4-4-4 5 1 5 3 10 2 10-2 4-1v-2l6-4 4-8 1-4v-14l-6-10-4-4v-2l-9-2h-13l-10 6-6 7-2 6h-2l1-6 4-6 8-7z" fill="#23AAAF"/>
<path transform="translate(1135,287)" d="m0 0h29l1 1v7l-1 1h-32l-1-8z" fill="#0F276C"/>
<path transform="translate(380,463)" d="m0 0h11l3 1 1 3v7l-1 5-2 1-15-1-1-2v-13z" fill="#F6744C"/>
<path transform="translate(400,425)" d="m0 0 5 1 21 8 20 4-1 9-13-3-16-7-13-8-1-3z" fill="#22367B"/>
<path transform="translate(618,499)" d="m0 0 4 1 3 4-1 6-2 2-14-1-17-1v-6l2-1 21-1z" fill="#53BFD5"/>
<path transform="translate(1067,565)" d="m0 0h9l4 9 4 12 7 11 11 11 8 5-1 2-10-6v-2h-2l-7-8-4-4-6-11-4-16-6-1 4 14 8 16 9 11 9 8 12 7 10 4 6 2-4 1-13-5-12-7-12-11-8-10-7-14-5-16z" fill="#D56B8D"/>
<path transform="translate(917,94)" d="m0 0 5 2 1 1v7l-1 2h9l3 3-4 3h-8l1 5-2 5-4-1v-9h-8l-4-4 3-2h9z" fill="#F4F8F9"/>
<path transform="translate(677,113)" d="m0 0h6l5 4 1 2v6l-4 5-2 1h-6l-6-5v-7l4-5z" fill="#F6F9FA"/>
<path transform="translate(521,105)" d="m0 0 4 2 1 1v6l-1 2h8l2 1-1 4-1 1h-7v9l-4 2-2-2v-9h-8l-2-4 1-2h9v-9z" fill="#F2F8F9"/>
<path transform="translate(296,424)" d="m0 0 5 1 1 1v7h6l2 1v5l-7 2-3 7h-4l-1-7-9-2 1-5 2-1h6z" fill="#F4F8FA"/>
<path transform="translate(1101,308)" d="m0 0 5 1 1 9h6l3 2-1 4h-9l1 6-2 4-4-1-2-8-8-2 1-4 7-1z" fill="#F6F9FA"/>
<path transform="translate(1125,730)" d="m0 0h27l13 1v1h-36l-1 1v11l-1 9h64l1 2v7h-2v-7h-63l-2-1-1-21z" fill="#4B457F"/>
<path transform="translate(1067,720)" d="m0 0 4 2 6 7 26 1 1 2v22l-1 1h-69v-3h65l2-1 1-19h-23l-5-3-4-5-3-3z" fill="#4A447E"/>
<path transform="translate(359,631)" d="m0 0h24l23 1 1 1 1 37 20 1v1h-21l-1-1-1-38h-45l-1 2-1 44-1 1h-10l-5-5-6-11v-2h2l8 14 1 1 9 1v-26l1-19z" fill="#56C1D7"/>
<path transform="translate(1067,718)" d="m0 0 18 4 18 1 1 2v7l-1-2h-26l-9-10z" fill="#DC618A"/>
<path transform="translate(993,280)" d="m0 0 7 1 9 2h18l2 6-1 13-1 1h-14l-18 3-2-1zm3 3-1 2v18l9-1 7-1h14l1-1v-13l-1-1-18-1z" fill="#D8628C"/>
<path transform="translate(1147,562)" d="m0 0h7l5 5-1 7-5 5-5 1-5-4-1-3v-8z" fill="#F2F8FA"/>
<path transform="translate(313,679)" d="m0 0h34l11 1v2h-44v37l-2 2-37-1v-1l35-1 1-1 1-37z" fill="#BF6999"/>
<path transform="translate(637,174)" d="m0 0h13l7 3 1 1v5l-5 3-12 1-4-1z" fill="#4EBDD1"/>
<path transform="translate(839,495)" d="m0 0h1v33l-2 9-4 6-5 4-10 3h-71v-1l32-1 3-1h37l10-4 5-6 2-8z" fill="#123A72"/>
<path transform="translate(1017,447)" d="m0 0 4 1 1 5-1 4h7l3 1-1 4h-9l1 7-2 4-3-1-2-9-7-1v-4l1-1h7v-7z" fill="#E8F4F7"/>
<path transform="translate(926,284)" d="m0 0h8l5 4v7l-5 5h-8l-3-4v-8z" fill="#F7FAFB"/>
<path transform="translate(251,634)" d="m0 0h2l-4 20-1 12v14l2 19 5 28v12l-8-10 1-2 4 2-1-9-3-16-3-26 1-21 2-13z" fill="#26ACB1"/>
<path transform="translate(188,728)" d="m0 0 4 1 7 7 10 7 10 5 12 5 9 2 16 1-2-6-2-4 5 3 3 6v4h-14l-12-2-12-4-14-7-11-8-9-8z" fill="#23ABB0"/>
<path transform="translate(261,758)" d="m0 0h1v6l-1 1h-47l1 49-4-1 1-48 2-2 46-1z" fill="#49447E"/>
<path transform="translate(501,745)" d="m0 0h1l1 66h36v3h-40v-28l1-2z" fill="#31B0B7"/>
<path transform="translate(686,641)" d="m0 0h3l5 5v10l-5 4-5-1-3-6-2-2v-4z" fill="#A871A6"/>
<path transform="translate(968,594)" d="m0 0 7 6 16 15-2 2-5-5v-2h-2v-2l-4-1-4-4-4-1v18l1 6 25 1-2-7 7 6v3h-34z" fill="#29ADB2"/>
<path transform="translate(888,296)" d="m0 0 5 2 4 4 21 14 14 10 6 4 5 3v2l5 2 9 8 1 2 13 1v1h-14l-5-5-6-4-3-3-8-5-4-4-9-5-3-3-7-5-3-1-4-4-10-6-9-6z" fill="#4F4781"/>
<path transform="translate(799,86)" d="m0 0h18l3 2-21 1-12 3-10 4h-2v2h-3v2l-6 3-7 8-4 4-1 2h-2v3h-2l-2 6-4 9h-2l2-6 4-9 8-12 4-2 9-8 8-6 18-5z" fill="#4C457F"/>
<path transform="translate(647,651)" d="m0 0 2 4h-181v-1l179-1z" fill="#033567"/>
<path transform="translate(740,148)" d="m0 0h1l1 17 2 8 4 9 10 16 2 4 3 1 6 9 8 10 5 5v2l2 1-5-1-12-14-4-6-8-11-4-6v-2h-2l-8-16-2-5z" fill="#4E4681"/>
<path transform="translate(906,453)" d="m0 0h6l5 5v6l-4 4h-7l-4-4v-6z" fill="#0E276C"/>
<path transform="translate(906,524)" d="m0 0 8 1 3 4-1 7-3 3h-7l-4-4v-6z" fill="#0D276B"/>
<path transform="translate(906,489)" d="m0 0h6l5 4v6l-4 5h-6l-5-5 1-7z" fill="#07366A"/>
<path transform="translate(906,560)" d="m0 0h6l5 5-1 7-3 3h-6l-5-5 1-7z" fill="#0E276C"/>
<path transform="translate(407,672)" d="m0 0h46l1 1v40l-2-1-1-37-44-1z" fill="#FBD8A3"/>
<path transform="translate(1213,370)" d="m0 0h4l-2 5-9 10-3 2-4-1-3-9z" fill="#FCFAF9"/>
<path transform="translate(275,354)" d="m0 0h6l2 3v7h29l3 3v7l-2 2v-10h-37l-1-1z" fill="#49447E"/>
<path transform="translate(173,705)" d="m0 0 3 1 5 9 2 5 4-2 12 1 17 5 10 4v2l-11-3-16-5-12-2v3l5 1 2 2-5 3-5-4-9-14z" fill="#23ABAF"/>
<path transform="translate(854,630)" d="m0 0h28v6h-25l-3-2z" fill="#162D71"/>
<path transform="translate(337,677)" d="m0 0h8l1 3h-33l-1 37-2 2h-34l2-2h22l9-1 1-35 2-3z" fill="#49447E"/>
<path transform="translate(278,366)" d="m0 0h35v27l-37 1-1 14-3 1-2-2 3-2 1-12 1-1h36v-23l-32-1z" fill="#DD658A"/>
<path transform="translate(265,718)" d="m0 0h9l1 2-11 1v24l-1 7-3-3-2-7v-15l2-6z" fill="#3CB5C1"/>
<path transform="translate(420,596)" d="m0 0h15v47l-1 10-3 3 1-13v-38l-1-6-11-2z" fill="#21AAAF"/>
<path transform="translate(690,497)" d="m0 0h3v3l2 1-1 3 5 2 3 3 4 1 6-6v-2l4 1-1 4-8 8-5-2-16-10 2-4z" fill="#EEF6FA"/>
<path transform="translate(1032,760)" d="m0 0h2l4 11v3h2l7 13 4 4 3 5 5 3 1 2 3 1v2l9 3 5 3-3 1-12-6-8-5-9-11-6-9-5-11z" fill="#514882"/>
<path transform="translate(259,632)" d="m0 0 1 3-5 16-2 21 2 24 1 8-3-1-2-15v-30l3-15 4-10z" fill="#26ACB0"/>
<path transform="translate(1135,397)" d="m0 0h1v13l-3 8-6 8-6 4-6 2h-14l-9-4-4-4 5 1 5 3 10 2 10-2 4-1v-2l6-4 4-8 1-4h2z" fill="#1DA8AE"/>
<path transform="translate(885,346)" d="m0 0h2v48l12-6h3l-14 10h-3z" fill="#ED5B80"/>
<path transform="translate(451,564)" d="m0 0 5 1 3 3-1 7-5 3-5-2-2-2 1-7z" fill="#F0F7FA"/>
<path transform="translate(381,502)" d="m0 0h2v2l-5 5-5 9-4 17-1 2-8 2-1 25-2 1v-29h10l2-14 7-14z" fill="#39B5C5"/>
<path transform="translate(283,638)" d="m0 0h5l-1 10-4 9-3 10-3 6-5 13-1 2h-2l3-10 13-34 1-4-2-1-2 6-3 7-2-1 2-6z" fill="#24ABB0"/>
<path transform="translate(677,615)" d="m0 0h20l1 3-6 1-12-1v29l-2-4v-24l-5-1 1-2z" fill="#EFF4F5"/>
<path transform="translate(1095,397)" d="m0 0 5 1 10 9 3 4-1 4-5-1-9-9-3-6z" fill="#23B4B4"/>
<path transform="translate(624,167)" d="m0 0h9l7 6-1 2-7-5h-9l-3 3-1 8 3 6 4 2 7-1 5-2-2 4-5 2h-7l-6-5-2-5v-8l3-5z" fill="#534C85"/>
<path transform="translate(328,595)" d="m0 0h16l-2 2-12 1 1 34 1 8v9h-1l-3-21z" fill="#3FB7C8"/>
<path transform="translate(1067,565)" d="m0 0h9l4 9 4 12 7 11 11 11 8 5-1 2-10-6v-2h-2l-7-8-4-4-6-11-4-16h-8z" fill="#D86B8C"/>
<path transform="translate(618,499)" d="m0 0 4 1 3 4-1 6-2 2-7-1-2-4 1-5z" fill="#EBF5F8"/>
<path transform="translate(697,732)" d="m0 0h14l1 1v22h-1l-1-20h-11l-3 31-2 1 1-19z" fill="#2FB0B6"/>
<path transform="translate(941,356)" d="m0 0 3 2-14 10-17 12-9 7-2-1 5-6 15-10 11-8z" fill="#CF6491"/>
<path transform="translate(357,652)" d="m0 0h1v27l-1 1h-10l-5-5-6-11v-2h2l8 14 1 1 9 1v-25z" fill="#56C1D7"/>
<path transform="translate(704,437)" d="m0 0h33l3 3v6l-4 6-4 3h-2l-1 2-1-3 7-4 2-3v-8h-23l-19 2-4 2 5-5z" fill="#D5788D"/>
<path transform="translate(1128,264)" d="m0 0h36v2l-35 1v19l3 1h-4l-1-2v-20z" fill="#F5B880"/>
<path transform="translate(1162,243)" d="m0 0 3 2v19h-40l2-2 35-1 1-3v-8z" fill="#4A457F"/>
<path transform="translate(781,547)" d="m0 0 37 1-2 2h-68v-1l32-1z" fill="#254280"/>
<path transform="translate(695,479)" d="m0 0 3 4 4 8v2l7 2v4l-11-1-3-2z" fill="#FACA6B"/>
<path transform="translate(869,184)" d="m0 0 2 1-3 7-6 9-5 5-2 1 2-4 6-8zm-15 23 1 2-4 7-5 5-1 3-5 3 2-4 4-6h2l1-4z" fill="#5D4D87"/>
<path transform="translate(164,666)" d="m0 0h9l-2 2h-5l5 24 4 11-1 3-2-1-6-20-2-13z" fill="#23AAAF"/>
<path transform="translate(993,280)" d="m0 0 7 1 9 2-2 2-8-1-3-1-1 20h7l11-1v1l-18 3-2-1z" fill="#CB6693"/>
<path transform="translate(1124,742)" d="m0 0h1v12l2 1h-23l2-2 15-5z" fill="#EF7559"/>
<path transform="translate(499,803)" d="m0 0h1l1 5 2 3h36v3h-40z" fill="#25ACB3"/>
<path transform="translate(251,455)" d="m0 0 5 5 4 10 1 8-3 1v2h-2l-3-17z" fill="#23367A"/>
<path transform="translate(516,335)" d="m0 0 1 2-6 10-12 12-14 8-7 2v-2l19-10 9-8 1-2h2l2-4z" fill="#09376B"/>
<path transform="translate(376,464)" d="m0 0 4 2 4 5-1 7-1 1h-5l-1-2z" fill="#FAFBFB"/>
<path transform="translate(1111,523)" d="m0 0 1 3-3 3v5h9l5 5 1 4-2 2-3-7-3-2h-9l-3 1-2 5-2 2 1-6 6-11z" fill="#2CB1B4"/>
<path transform="translate(728,467)" d="m0 0h2v16l-4 9-4 2h-10l3-4 5 1 3-3 4-1z" fill="#F0F7F9"/>
<path transform="translate(906,453)" d="m0 0h6l5 5v6l-4 4h-7l-4-4v-6zm4 2-5 3-1 5 5 4 5-2 1-6-4-4z" fill="#063469"/>
<path transform="translate(907,491)" d="m0 0 6 1 2 3-1 5-4 2-4-1-2-2 1-6z" fill="#0E276C"/>
<path transform="translate(906,560)" d="m0 0h6l5 5-1 7-3 3h-6l-5-5 1-7zm1 2-3 4 1 5 2 2h5v-2l3-1v-5l-3-3z" fill="#0C386E"/>
<path transform="translate(1133,511)" d="m0 0h15l10 3 4 3h-4l-12-3-11-1-9 4-4-1 3-2z" fill="#31B3B5"/>
<path transform="translate(885,299)" d="m0 0 6 1 9 7-2 1-9-5-1-2-1 1v44h-2z" fill="#F8C56C"/>
<path transform="translate(697,227)" d="m0 0 4 1 7 3 4 6v8l-3 3 1-8-2-7-9-3-6 2-4 6v6l3 6-4-2-1-2v-10l6-7z" fill="#49447E"/>
<path transform="translate(906,524)" d="m0 0 8 1 3 4-1 7-3 3h-7l-4-4v-6zm1 2-3 2v6l2 3 5 1 3-3 1-5-1-2h-2l-1-2z" fill="#09376B"/>
<path transform="translate(466,402)" d="m0 0h1v35h3v19h-1v-17l-4-1-1-18 1-14z" fill="#28ACB1"/>
<path transform="translate(275,354)" d="m0 0h6l1 1v11h-6l-1-1z" fill="#21347A"/>
<path transform="translate(446,517)" d="m0 0 2 1 4 13 6 7 2 1v2l5 2 9 4v2l-10-3-10-8-6-10-2-7z" fill="#0C386D"/>
<path transform="translate(765,101)" d="m0 0 1 2-7 8-4 4-1 2h-2v3h-2l-2 6-4 9h-2l2-6 4-9 8-12 4-2z" fill="#584B85"/>
<path transform="translate(1165,242)" d="m0 0 5 2 5 3 11 8 8 6v2h2v2l-5-2-4-3v-2h-3l-1-2-3-1-4-4-10-7z" fill="#4E4680"/>
<path transform="translate(249,707)" d="m0 0h2l4 20v12l-8-10 1-2 4 2-1-9z" fill="#26ACB1"/>
<path transform="translate(187,718)" d="m0 0 12 1 17 5 10 4v2l-11-3-16-5-13-2z" fill="#27ACB0"/>
<path transform="translate(694,184)" d="m0 0h2l-1 40h-1v-38h-30v-1z" fill="#484781"/>
<path transform="translate(235,723)" d="m0 0 4 1 9 10 4 7-5-1-13-6v-1l7 1h3l-2-5-4-2z" fill="#27ACB3"/>
<path transform="translate(1104,725)" d="m0 0 1 3h19l19 1v1h-18l-1 6h-1l-1-5h-16v15h-1l-1-6z" fill="#F9EBDF"/>
<path transform="translate(383,503)" d="m0 0 5 5 6 12 2 7v9l-2-2-3-15-5-9-2-2-2 1v-5z" fill="#24ABB0"/>
<path transform="translate(753,191)" d="m0 0 5 2 2 3v3l4 2v3l4 2 3 5v2h2l2 7-3-3-8-10-2-4-5-5z" fill="#E7AE8D"/>
<path transform="translate(994,620)" d="m0 0 7 6v3h-26l-3-2h24z" fill="#2FAFB4"/>
<path transform="translate(869,126)" d="m0 0 2 2 4 13 2 8v16l-1 5h-1l-1-20-2-13-3-7z" fill="#DDA792"/>
<path transform="translate(799,88)" d="m0 0h21l11 3v1h-8l-4-1h-29l3-2z" fill="#E5A684"/>
<path transform="translate(1033,755)" d="m0 0h68v1l-65 1-2 2z" fill="#FDEDE0"/>
<path transform="translate(380,463)" d="m0 0h11l3 1 1 3v7l-1 5-2 1-10-1 2-3 1 1 8 1v-13l-11 1h-3l-1-2z" fill="#CE6991"/>
<path transform="translate(258,356)" d="m0 0 2 1-16 10-18 10-3 1v-2l8-5 10-5 2-2 10-6z" fill="#49447E"/>
<path transform="translate(234,664)" d="m0 0 1 4v32l-2-4-1-3v-27z" fill="#21AAAF"/>
<path transform="translate(407,566)" d="m0 0h13v28l-2 1-1-26-2-1-8-1z" fill="#2CAEB2"/>
<path transform="translate(278,366)" d="m0 0h35v3l-34-1z" fill="#D27D8F"/>
<path transform="translate(1222,529)" d="m0 0 1 3-5 9-5 6-4-1-4-4h3l3 2 7-8v-4l-4-2z" fill="#33B4B8"/>
<path transform="translate(195,725)" d="m0 0 8 1 26 9v2l-10-3-24-7z" fill="#26ABB0"/>
<path transform="translate(210,682)" d="m0 0 5 2 9 7 5 4 3 6-4-2-5-5-9-6-4-4z" fill="#25ABB0"/>
<path transform="translate(432,654)" d="m0 0 1 4-2 11v2h23l-1 2-25-1v-8l3-8z" fill="#34B2BE"/>
<path transform="translate(988,602)" d="m0 0 4 2 6 5 6 7 8 8 1 4-5-5-7-6v-2h-2v-2l-4-2-7-7z" fill="#4B5B8E"/>
<path transform="translate(1126,588)" d="m0 0 8 2h15l6-1 1 2-6 2h-17l-8-3z" fill="#31B2B5"/>
<path transform="translate(1165,245)" d="m0 0 5 1 10 7v2l4 1-4 1-1-3-4-1v-2l-8-2v9l-2 3z" fill="#D2A198"/>
<path transform="translate(900,183)" d="m0 0 1 2-6 12-1 3v8l3 11 1 3-3-1-3-9v-14l4-10z" fill="#4C6294"/>
<path transform="translate(346,679)" d="m0 0 12 1v2h-32v-2z" fill="#E15F87"/>
<path transform="translate(533,412)" d="m0 0 1 3-13 8-14 7h-2v-2l14-7 13-8z" fill="#24ABB0"/>
<path transform="translate(567,377)" d="m0 0 2 1-8 11-9 10-5 4 2-5 3-1v-2h2l2-4 5-7h2l1-4h2z" fill="#28ADB1"/>
<path transform="translate(850,103)" d="m0 0 6 3 6 8 1 3h2l4 7-1 2-3-2-3-5-9-11-1-3h-2z" fill="#F6C795"/>
<path transform="translate(568,310)" d="m0 0h24v9l-3 9h-1l1-15-1-1-20-1z" fill="#2AADB1"/>
<path transform="translate(1069,567)" d="m0 0h1l4 14 8 16 1 3h-2l-6-10-7-19z" fill="#E96683"/>
<path transform="translate(381,502)" d="m0 0h2v2l-5 5-5 9-4 17-2 1 2-14 7-14z" fill="#3CB6C6"/>
<path transform="translate(188,728)" d="m0 0 4 1 7 7 9 7-1 2-6-4-10-8-3-3z" fill="#20A9AF"/>
<path transform="translate(686,645)" d="m0 0 4 2 1 6-3 4-2-1 1-2h-2l-2-6v-2z" fill="#F2415D"/>
<path transform="translate(1198,264)" d="m0 0 1 2h2v2l4 2 2 4-1 4-3 2-2 3-4-3 6-2v-2h2l-6-7-3-2v-2z" fill="#544C85"/>
<path transform="translate(740,148)" d="m0 0h1l1 17 2 8 3 8h-3l-5-12z" fill="#67528B"/>
<path transform="translate(1166,798)" d="m0 0 1 3-10 8-6 2h-6l3-2 9-4h2v-2z" fill="#615089"/>
<path transform="translate(854,630)" d="m0 0h10l1 2 3 2-7 2-6-1z" fill="#303C7C"/>
<path transform="translate(1130,560)" d="m0 0 4 1 9 3v9l3 6-4-1-2-5-2-7-6-3z" fill="#2CB0B3"/>
<path transform="translate(876,144)" d="m0 0h2l1 5v17l-1 4h-2z" fill="#49447E"/>
<path transform="translate(252,619)" d="m0 0v3l-4 7-5 9-3 1 3-9 5-8z" fill="#25ABB0"/>
<path transform="translate(1088,424)" d="m0 0 5 1 5 3 10 2h5l-2 2h-10l-9-4z" fill="#21AAAF"/>
<path transform="translate(1123,380)" d="m0 0 4 1 6 7 2 5v16h-1l-1-14-6-10z" fill="#24ABB0"/>
<path transform="translate(715,656)" d="m0 0h27v13h-2l-1-11-24-1z" fill="#063669"/>
<path transform="translate(919,372)" d="m0 0 2 1-5 5-11 8h-3l5-6z" fill="#D2638F"/>
<path transform="translate(226,708)" d="m0 0 4 1 11 9 5 6h-3l-2-4-4-2-10-8z" fill="#26ACB0"/>
<path transform="translate(1044,782)" d="m0 0 3 1 9 11 2 2-1 3-6-5v-3l-3-1-4-7z" fill="#E7A97C"/>
<path transform="translate(1101,374)" d="m0 0h14l10 5-2 1-9-3h-15l-1-2z" fill="#1BA8AD"/>
<path transform="translate(344,565)" d="m0 0h13v1l-10 2-1 1-1 26h-1z" fill="#56C1D7"/>
<path transform="translate(556,791)" d="m0 0 2 1-4 3h-2l-1 10v7l-2 1v-17l3-4z" fill="#063669"/>
<path transform="translate(853,208)" d="m0 0 2 1-4 7-5 5-1 3-5 3 2-4 4-6h2l1-4z" fill="#65528B"/>
<path transform="translate(1184,779)" d="m0 0 1 2h-2l-1 6-8 6-5 5-2-1 10-10 5-7z" fill="#68538C"/>
<path transform="translate(1080,397)" d="m0 0h1l3 18v3l-3-3-2-8v-8z" fill="#1FA9AE"/>
<path transform="translate(354,213)" d="m0 0 5 3 3 3-2 5-3 2-3-10z" fill="#243477"/>
<path transform="translate(208,743)" d="m0 0 11 5 6 3 1 2-6-1-12-6z" fill="#24ABB0"/>
<path transform="translate(258,742)" d="m0 0 4 8v8l-4-5-3-6z" fill="#143772"/>
<path transform="translate(968,603)" d="m0 0h1l1 17 2 7 3 2h-8z" fill="#42BFC0"/>
<path transform="translate(262,605)" d="m0 0 2 1-2 4-8 9-5 3 2-4 9-11h2z" fill="#20AAAF"/>
<path transform="translate(900,387)" d="m0 0 2 1-14 10h-3l1-5 5-1z" fill="#CA6693"/>
<path transform="translate(888,296)" d="m0 0 5 2 4 4 6 4 2 3-6-2-8-6-5-3z" fill="#5F4E86"/>
<path transform="translate(683,456)" d="m0 0h1l3 11 2 4 2-1 2 10-5-5-5-12z" fill="#D9798B"/>
<path transform="translate(671,656)" d="m0 0h7l-3 2h-2v16h-2z" fill="#033567"/>
<path transform="translate(396,537)" d="m0 0h10v29l-2-4v-22l-5-1z" fill="#2CAEB2"/>
<path transform="translate(953,344)" d="m0 0 3 2-2 5-8 6-2-1 4-5 3-2 1-3-2-1z" fill="#CD6992"/>
<path transform="translate(1007,284)" d="m0 0h19l1 5-2-2-18-1z" fill="#DA618B"/>
<path transform="translate(379,201)" d="m0 0h2l-1 3-8 7-3 1-1 3-2-3 3-3 5-4z" fill="#4A6094"/>
<path transform="translate(938,170)" d="m0 0 1 3-1 1h-20l2-2 17-1z" fill="#4C719F"/>
<path transform="translate(1042,154)" d="m0 0 7 6 1 6-4-1-4-8z" fill="#162C71"/>
<path transform="translate(226,752)" d="m0 0 19 4v2l-11-1-10-3z" fill="#21AAAF"/>
<path transform="translate(230,737)" d="m0 0 7 1 12 6-2 2-17-8z" fill="#27ACB0"/>
<path transform="translate(1167,489)" d="m0 0 10 4 8 5-2 2-8-5-9-4z" fill="#34B5B7"/>
<path transform="translate(247,680)" d="m0 0h1l2 19 1 8-3-1-1-9z" fill="#20A9AF"/>
<path transform="translate(267,677)" d="m0 0h2l-1 6-5 13h-2l3-11z" fill="#25ABB0"/>
<path transform="translate(973,587)" d="m0 0 4 2 3 3v2h2v2l4 2 1 4-7-6-7-7z" fill="#4D709D"/>
<path transform="translate(1153,479)" d="m0 0 11 1 3 2-4 1-5-1-2 1v5h-2z" fill="#3AB8BC"/>
<path transform="translate(624,167)" d="m0 0h9l7 6-1 2-7-5h-11z" fill="#4B457F"/>
<path transform="translate(191,584)" d="m0 0 5 1v5l-5 1-1-1v-5z" fill="#E85E83"/>
<path transform="translate(272,349)" d="m0 0h3v14l-2-1v-10l-6 1z" fill="#C67596"/>
<path transform="translate(784,92)" d="m0 0 4 1-6 3-5 2-5 4-4-1 4-1v-2h3v-2z" fill="#E7B397"/>
<path transform="translate(202,598)" d="m0 0 6 1v6l-5-1-1-1z" fill="#EC6081"/>
<path transform="translate(1103,567)" d="m0 0 4 1 4 8 3 4-1 2-7-8z" fill="#2FB1B5"/>
<path transform="translate(1126,266)" d="m0 0h1l1 21h7l-4 2-4-1-2-2z" fill="#7D5D95"/>
<path transform="translate(1190,763)" d="m0 0 1 2-2 9-3 5-3 1 2-6 3-7z" fill="#534982"/>
<path transform="translate(1195,500)" d="m0 0 5 4 6 9-2 2-8-11-2-3z" fill="#31B2B5"/>
<path transform="translate(906,453)" d="m0 0 2 1-3 3v6l5 5-5-1-3-3v-6z" fill="#0F396F"/>
<path transform="translate(1109,408)" d="m0 0 4 3-1 4-5-1-2-4z" fill="#21B1B4"/>
<path transform="translate(1121,728)" d="m0 0 22 1v1h-18l-1 6h-1l-1-5-2-2z" fill="#A7D6DB"/>
<path transform="translate(254,705)" d="m0 0h5l-1 7-1 3h-2z" fill="#2CB0B9"/>
<path transform="translate(906,489)" d="m0 0 2 1-3 5 1 5 2 4-5-3-1-7z" fill="#0D396E"/>
<path transform="translate(1174,484)" d="m0 0 11 6 4 4h-3l-12-7z" fill="#34B4B7"/>
<path transform="translate(130,450)" d="m0 0h8l-1 2-7 2-8 4-3 1 1-3 8-4h2z" fill="#4B5D92"/>
<path transform="translate(272,347)" d="m0 0 4 1 1 5 3 1h-5v-5l-8 4h-2v-2z" fill="#49447E"/>
<path transform="translate(183,693)" d="m0 0 12 2 6 3-4 1-10-3-4-1z" fill="#23ABAF"/>
<path transform="translate(1199,534)" d="m0 0 4 1-1 3 2 2-2 1-8-4v-2z" fill="#34B4B9"/>
<path transform="translate(1108,534)" d="m0 0h10l5 5 1 4-2 2-3-7-3-2-8-1z" fill="#3AB8BA"/>
<path transform="translate(377,464)" d="m0 0 6 5 1 7-3 3v-7l-3-4z" fill="#FDEDE0"/>
<path transform="translate(588,329)" d="m0 0h1l-1 9-3 8h-2l4-16z" fill="#25ACB0"/>
<path transform="translate(1061,802)" d="m0 0h2v2l9 3 5 3-3 1-12-6z" fill="#4B457F"/>
<path transform="translate(1082,600)" d="m0 0 4 2 9 10 3 3-4-1-10-10z" fill="#DC668A"/>
<path transform="translate(1178,566)" d="m0 0 2 1-4 8-5 5v-3l3-5z" fill="#32B3B6"/>
<path transform="translate(915,569)" d="m0 0 1 3-3 3h-6l-4-3v-2l9 3v-2z" fill="#033567"/>
<path transform="translate(1148,541)" d="m0 0 4 2 2 3v10l-4 4 2-5v-6z" fill="#0E396F"/>
<path transform="translate(1184,500)" d="m0 0h4v2h2v2l4 2 3 5-1 3-7-9z" fill="#34B3B6"/>
<path transform="translate(777,220)" d="m0 0 7 7 4 1v-5h1v6l-5 1-7-6-1-3z" fill="#F1BA8A"/>
<path transform="translate(766,102)" d="m0 0 2 1-7 8-3 1-1 4-3 1 2-5 8-7z" fill="#EBBC9B"/>
<path transform="translate(712,777)" d="m0 0h1v9l-8-6 1-2 5 2z" fill="#2EAFB5"/>
<path transform="translate(697,733)" d="m0 0h13v1l-11 1-1 7-2 1z" fill="#27ACB0"/>
<path transform="translate(906,524)" d="m0 0 2 1-2 3h-2l2 8v3l-4-4v-6z" fill="#103A71"/>
<path transform="translate(380,463)" d="m0 0h11l3 1-1 2h-11-3l-1-2z" fill="#C97894"/>
<path transform="translate(465,434)" d="m0 0h2v3h3v19h-1v-17l-4-1z" fill="#39A1B7"/>
<path transform="translate(492,360)" d="m0 0m-2 1h2l-1 3-12 5-1-2z" fill="#0E396F"/>
<path transform="translate(1201,271)" d="m0 0 4 3v2h-2v2l-3 2h-3v2l-4 1 1-3 6-3h2z" fill="#E8BC9B"/>
<path transform="translate(820,87)" d="m0 0 8 1 6 3-3 1-11-3z" fill="#574B84"/>
<path transform="translate(256,739)" d="m0 0 2 2-1 5-5-2v-3z" fill="#0E276C"/>
<path transform="translate(235,723)" d="m0 0 4 1 8 9-2 2-3-4v-2l-4-2z" fill="#25ABB0"/>
<path transform="translate(1098,191)" d="m0 0 5 5 1 4-3 1-3-6z" fill="#152C71"/>
<path transform="translate(752,117)" d="m0 0h2l-1 5-2 3h-2l-2 7h-2l2-6 3-6h2z" fill="#E3AC95"/>
<path transform="translate(1067,718)" d="m0 0 12 3v1h-5l1 4-7-6z" fill="#A571A8"/>
<path transform="translate(336,662)" d="m0 0h2l6 11-1 3-7-12z" fill="#41B8C9"/>
<path transform="translate(533,412)" d="m0 0 1 3-11 7h-2v-2l11-7z" fill="#25ADB0"/>
<path transform="translate(755,408)" d="m0 0 2 1-12 7-4 1-2-1z" fill="#07366A"/>
<path transform="translate(575,363)" d="m0 0h2l-2 5-5 8-2-1z" fill="#25ABB0"/>
<path transform="translate(677,119)" d="m0 0 5 1 1 3-1 2-5-1z" fill="#24387A"/>
<path transform="translate(275,674)" d="m0 0 1 3-5 11h-2l3-10z" fill="#27ACB0"/>
<path transform="translate(988,602)" d="m0 0 4 2 6 5-2 3-8-8z" fill="#4C6D9D"/>
<path transform="translate(1099,547)" d="m0 0 2 3 3 5 1 2-5 2-1-5z" fill="#3AB8C0"/>
<path transform="translate(576,492)" d="m0 0h3l1 3-5 1-7 7-3-1 8-7z" fill="#E27786"/>
<path transform="translate(272,470)" d="m0 0h10v1l-15 3-4 2 2-4z" fill="#4C5E93"/>
<path transform="translate(1173,296)" d="m0 0 4 1-11 6-1-6h2v2l6-1z" fill="#EAB99D"/>
<path transform="translate(859,115)" d="m0 0 6 2 4 7-1 2-3-2-3-5z" fill="#E6AE84"/>
<path transform="translate(186,723)" d="m0 0 6 1 2 2-5 3-3-2z" fill="#27ADB1"/>
<path transform="translate(1133,511)" d="m0 0 4 1-9 4-5 1-1-2z" fill="#38B7B9"/>
<path transform="translate(887,299)" d="m0 0 6 2 7 6-2 1-9-5z" fill="#F2C38B"/>
<path transform="translate(548,800)" d="m0 0h1v14h-10v-1l8-2z" fill="#48BACA"/>
<path transform="translate(203,700)" d="m0 0 5 1 8 5-2 2-11-7z" fill="#25ABB0"/>
<path transform="translate(433,643)" d="m0 0h1v10l-3 3 1-12z" fill="#24ABB0"/>
<path transform="translate(1164,295)" d="m0 0h1l2 7 2-1-2 4-3-1-2-7z" fill="#5B5A8F"/>
<path transform="translate(513,122)" d="m0 0h7l1 10-3-1v-7l-5-1z" fill="#4C6196"/>
<path transform="translate(749,120)" d="m0 0 1 2-6 13h-2l2-6 3-7z" fill="#49447E"/>
<path transform="translate(211,697)" d="m0 0 8 4 5 4-1 2-12-8z" fill="#29ADB2"/>
<path transform="translate(176,686)" d="m0 0h9l6 2v2l-15-3z" fill="#27ACB0"/>
<path transform="translate(980,607)" d="m0 0 4 1 7 7-2 2-5-5v-2h-2v-2z" fill="#3BB8BA"/>
<path transform="translate(1104,532)" d="m0 0 3 3-1 2h-2l-2 5-2 2 1-6z" fill="#3CB8C2"/>
</svg>
