<?xml version="1.0" standalone="no"?>
<!DOCTYPE svg PUBLIC "-//W3C//DTD SVG 20010904//EN"
 "http://www.w3.org/TR/2001/REC-SVG-20010904/DTD/svg10.dtd">
<svg version="1.0" xmlns="http://www.w3.org/2000/svg"
 width="1280.000000pt" height="640.000000pt" viewBox="0 0 1280.000000 640.000000"
 preserveAspectRatio="xMidYMid meet">
<metadata>
Created by potrace 1.15, written by Peter Selinger 2001-2017
</metadata>
<g transform="translate(0.000000,640.000000) scale(0.100000,-0.100000)"
fill="#e91e63" stroke="none">
<path d="M1235 4726 c-21 -21 -26 -22 -42 -10 -52 39 -81 -2 -34 -50 44 -46
41 -63 -11 -61 -24 1 -52 5 -64 9 -14 4 -26 1 -34 -9 -17 -20 -3 -36 67 -78
45 -27 53 -36 53 -62 l0 -30 -57 3 c-81 4 -97 8 -132 38 -20 16 -39 24 -51 21
-11 -3 -23 -1 -26 4 -8 14 -44 11 -50 -4 -2 -7 3 -30 11 -51 18 -42 18 -41
-37 -71 -15 -8 -37 -15 -48 -15 -29 0 -60 -18 -60 -35 0 -21 27 -32 115 -44
118 -16 147 -26 190 -71 35 -35 40 -47 39 -84 -1 -46 -42 -132 -77 -163 -11
-10 -17 -13 -14 -6 5 8 -5 12 -33 11 -23 0 -42 1 -43 3 -39 59 -62 80 -81 77
-12 -3 -28 2 -36 10 -12 13 -15 12 -27 -4 -7 -10 -13 -32 -14 -48 0 -17 -3
-25 -6 -18 -2 6 -8 12 -13 12 -5 0 -37 17 -71 37 -41 24 -64 33 -67 25 -2 -8
-10 -7 -28 4 -13 9 -31 14 -39 10 -14 -5 -13 -11 5 -46 23 -44 17 -48 -39 -29
-43 15 -63 -1 -36 -31 10 -11 27 -46 37 -78 11 -31 26 -64 34 -73 12 -14 11
-17 -11 -27 -45 -21 -25 -44 50 -57 22 -4 60 -17 84 -28 l44 -20 -65 -33 c-88
-44 -95 -54 -71 -101 18 -38 18 -38 93 -44 135 -11 157 -18 190 -56 l31 -35
-2 -113 c-3 -126 3 -142 67 -192 40 -31 144 -159 144 -177 0 -7 -3 -6 -9 2 -6
10 -10 5 -14 -16 -4 -19 -14 -33 -27 -37 -11 -4 -18 -10 -15 -15 5 -9 -2 -11
-126 -41 -65 -15 -104 -32 -155 -66 -38 -25 -131 -76 -207 -113 -139 -69 -248
-137 -251 -155 0 -6 34 -11 83 -12 66 -1 97 3 148 22 l64 23 -17 -27 c-9 -14
-27 -39 -39 -56 -18 -25 -65 -119 -65 -131 0 -2 19 4 42 12 23 8 48 12 56 9
24 -9 79 22 113 66 67 84 225 241 264 262 37 20 53 22 190 20 103 -2 174 2
227 13 90 18 145 17 368 -3 187 -17 239 -11 400 45 47 17 114 33 150 37 63 6
67 5 125 -31 99 -61 114 -67 205 -77 85 -9 93 -8 236 28 81 21 166 38 188 39
30 0 73 -15 158 -54 l117 -55 -26 -21 c-15 -11 -22 -23 -17 -27 6 -3 69 -7
141 -9 143 -3 137 0 88 -58 -12 -14 -34 -47 -48 -74 -27 -48 -27 -48 -4 -42
12 4 47 12 77 18 85 17 107 27 147 72 73 81 219 207 266 230 47 22 51 22 129
9 54 -9 121 -12 197 -9 176 8 174 8 371 -25 156 -26 201 -30 291 -25 58 3 117
10 131 15 13 5 68 18 122 30 117 25 142 19 232 -52 33 -25 76 -53 97 -62 52
-22 211 -18 347 7 58 11 118 19 135 19 36 -1 119 -35 160 -66 41 -31 117 -67
197 -95 59 -21 66 -25 57 -42 -9 -17 -4 -18 66 -18 80 0 116 12 150 50 28 31
214 174 251 193 70 36 114 38 210 11 64 -18 130 -27 234 -34 128 -7 164 -14
305 -54 187 -54 333 -74 429 -57 113 19 144 21 207 14 62 -6 66 -9 129 -69
112 -108 196 -129 448 -112 138 9 144 9 189 -13 26 -13 63 -37 83 -55 51 -46
133 -96 225 -137 68 -30 87 -35 129 -30 43 5 50 9 63 40 8 19 26 45 40 57 48
42 1 90 -127 131 -112 36 -214 91 -285 153 -51 45 -87 67 -133 83 -106 36
-172 126 -172 236 0 24 -5 76 -11 114 -21 139 0 153 226 151 121 -1 553 -29
855 -57 30 -3 163 -14 295 -25 247 -22 553 -60 685 -86 130 -26 198 -53 243
-96 l42 -40 -34 -28 c-18 -16 -52 -38 -75 -50 l-41 -22 -60 57 c-104 99 -148
115 -212 75 -50 -30 -58 -110 -12 -110 12 0 17 -4 14 -11 -9 -13 24 -51 37
-43 6 4 3 -4 -6 -18 -19 -29 -85 -68 -116 -68 -12 0 -61 17 -109 39 -115 51
-139 56 -205 37 -101 -30 -208 -156 -235 -277 -17 -78 30 -226 91 -289 14 -14
27 -30 29 -37 6 -18 179 -144 247 -180 34 -18 129 -53 210 -79 81 -25 192 -61
247 -80 136 -46 191 -58 395 -88 96 -14 238 -35 315 -47 263 -38 338 -43 476
-30 245 23 305 71 283 229 l-8 57 -7 -40 -6 -40 -2 48 c-1 61 -32 122 -72 143
-49 25 -129 29 -172 9 -70 -33 -110 -148 -59 -170 12 -5 22 -15 22 -22 0 -7
11 -13 25 -13 20 0 26 7 36 40 7 22 19 45 26 52 12 10 12 7 2 -15 -12 -27 -7
-57 10 -57 19 0 41 32 41 58 0 26 3 28 45 27 51 0 60 -12 46 -63 -26 -88 -96
-135 -206 -136 -38 0 -78 4 -87 10 -24 13 -119 165 -116 184 2 8 32 29 67 47
35 17 78 46 97 64 47 46 98 148 133 268 52 182 88 228 193 251 69 14 88 33 88
85 0 38 3 43 39 63 39 22 61 60 53 95 -2 9 -10 17 -18 17 -10 0 -14 8 -12 23
2 18 -2 23 -29 25 -24 2 -47 18 -85 56 -115 113 -217 158 -408 175 -63 6 -120
11 -126 11 -6 0 -11 22 -13 49 -2 58 16 81 79 100 22 6 41 16 41 21 6 49 -4
60 -128 150 -114 83 -199 100 -283 58 -36 -19 -50 -34 -73 -80 -15 -32 -34
-58 -42 -58 -14 0 -18 -11 -30 -81 -6 -41 -70 -121 -114 -143 -14 -7 -43 -16
-64 -20 -28 -5 -43 -15 -55 -37 -9 -16 -25 -29 -34 -29 -29 0 -48 12 -48 30 0
13 -11 19 -47 24 -104 14 -320 36 -553 56 -135 11 -373 32 -530 45 -157 13
-465 38 -685 55 -435 32 -493 38 -479 48 6 4 20 24 33 44 20 34 21 40 7 53 -8
8 -25 15 -38 15 -35 0 -142 -54 -165 -84 l-21 -26 -459 30 c-466 30 -558 38
-549 47 3 3 -17 17 -44 30 -111 55 -192 176 -227 337 -23 105 -15 118 115 182
56 29 118 64 137 78 43 33 81 97 99 167 11 39 24 62 49 84 38 33 124 65 174
65 35 0 96 38 101 62 2 9 -5 26 -14 37 -16 18 -20 19 -52 5 -52 -21 -55 -19
-48 34 3 26 1 54 -4 62 -5 8 -10 11 -10 5 0 -5 -7 -2 -14 8 -21 27 -53 6 -78
-51 -28 -64 -55 -101 -91 -122 -31 -19 -31 -19 -55 7 -22 24 -23 31 -17 96 5
48 18 92 42 143 20 41 32 81 29 91 -7 21 -60 48 -76 38 -18 -11 -60 -13 -66
-4 -3 5 -16 9 -30 9 -30 0 -32 -25 -4 -60 33 -42 24 -80 -14 -55 -12 8 -30 14
-41 14 -11 0 -31 2 -45 3 -45 5 -37 -30 19 -81 45 -42 62 -76 46 -93 -3 -3
-40 3 -83 13 -66 16 -82 24 -108 55 -17 20 -37 35 -45 32 -8 -3 -20 2 -28 9
-24 24 -36 8 -36 -46 0 -50 -2 -53 -34 -67 -18 -8 -55 -14 -82 -14 -84 0 -78
-47 9 -70 26 -7 77 -26 114 -43 115 -50 151 -135 96 -223 -46 -71 -75 -83
-149 -64 -30 8 -40 18 -53 50 -9 23 -24 43 -34 46 -9 3 -24 9 -33 14 -20 10
-49 -16 -49 -44 0 -24 -32 -6 -92 51 -25 25 -52 43 -60 40 -7 -2 -21 2 -30 10
-25 22 -41 6 -34 -32 6 -30 5 -33 -16 -30 -13 2 -33 7 -44 10 -29 9 -39 -10
-21 -38 7 -12 17 -47 20 -77 3 -30 9 -65 12 -76 5 -16 1 -23 -14 -27 -36 -9
-24 -36 27 -58 82 -37 97 -47 100 -67 2 -15 -7 -22 -45 -32 -71 -19 -93 -35
-93 -70 0 -33 30 -70 56 -70 32 0 159 -42 178 -58 39 -36 48 -69 35 -128 -7
-30 -15 -57 -19 -59 -4 -2 -133 2 -286 10 -153 8 -396 19 -539 25 -143 5 -288
13 -322 16 -62 6 -63 6 -63 36 0 17 14 55 30 85 39 68 38 79 -5 87 -67 13
-175 -59 -212 -142 l-26 -54 -286 7 c-483 12 -675 21 -696 33 -11 6 -45 22
-76 35 -31 13 -72 41 -92 61 -43 43 -146 245 -154 301 -5 38 -2 44 34 77 22
19 67 50 100 67 121 65 175 130 194 237 5 32 12 66 15 75 13 45 113 108 195
123 47 8 91 49 87 79 -2 18 -10 22 -42 24 -21 1 -47 -2 -57 -8 -17 -9 -19 -6
-19 33 0 56 -11 72 -43 64 -16 -4 -27 -1 -30 7 -3 9 -9 9 -23 1 -22 -13 -38
-43 -53 -99 -6 -22 -23 -55 -39 -74 -24 -30 -31 -32 -49 -22 -28 14 -33 32
-34 113 -1 45 6 84 20 122 24 64 27 109 9 123 -7 5 -33 8 -58 7 -67 -5 -71 -6
-66 -21 7 -17 -4 -16 -28 2 -47 36 -71 1 -32 -46 34 -40 33 -47 -5 -41 -19 3
-34 0 -39 -9 -7 -10 -14 -10 -32 -2 -62 27 -65 -24 -4 -66 59 -41 76 -59 76
-80 0 -16 -5 -17 -52 -9 -88 14 -93 16 -126 48 -37 35 -62 38 -69 9 l-6 -22
-17 23 c-26 34 -54 20 -47 -23 3 -17 8 -39 11 -47 8 -18 -66 -60 -106 -60 -36
0 -58 -9 -58 -25 0 -22 25 -34 101 -49 41 -8 93 -22 117 -31 57 -23 112 -88
112 -132 0 -41 -39 -119 -76 -153 -15 -14 -24 -19 -20 -12 5 8 -1 12 -21 12
-33 0 -73 25 -73 44 0 8 -8 24 -18 36 -21 26 -62 20 -63 -8 0 -12 -3 -11 -9 6
-12 29 -34 28 -48 -4 l-12 -25 -46 33 c-25 18 -48 36 -50 40 -10 16 -54 8 -54
-9 0 -14 -4 -13 -24 7 -29 26 -63 21 -51 -8 22 -50 9 -64 -43 -48 -28 9 -41
-17 -19 -42 8 -9 18 -36 22 -59 3 -23 15 -58 24 -77 18 -34 18 -35 -3 -38 -32
-5 -31 -32 1 -47 15 -7 54 -16 85 -18 32 -3 55 -9 53 -14 -3 -4 -1 -10 4 -14
20 -11 -1 -34 -52 -55 -72 -30 -90 -48 -82 -80 10 -38 35 -60 68 -60 17 0 60
-5 96 -11 55 -10 72 -18 104 -49 29 -30 37 -45 37 -74 l0 -36 -603 0 -604 0
-2 59 c-2 47 3 70 24 111 15 29 24 59 20 67 -3 9 -8 13 -11 10 -4 -3 -13 1
-21 9 -13 13 -20 11 -62 -11 -88 -48 -128 -104 -157 -220 -5 -20 -12 -25 -37
-25 -17 0 -231 -5 -475 -11 -278 -7 -447 -7 -451 -2 -3 6 -19 13 -36 17 -112
28 -222 127 -292 265 -67 129 -59 157 66 245 120 84 170 156 171 246 1 109 40
159 162 206 42 16 77 37 93 56 27 32 30 63 5 63 -8 0 -20 6 -26 14 -10 12 -17
11 -48 -7 l-36 -21 0 39 c0 41 -22 73 -44 64 -7 -3 -16 2 -20 11 -10 27 -44 0
-56 -45 -5 -22 -14 -57 -20 -77 -9 -37 -60 -103 -78 -103 -45 0 -66 146 -37
254 15 53 16 71 6 92 -7 16 -17 24 -26 21 -7 -3 -19 1 -25 9 -17 20 -27 18
-55 -10z m3141 -438 c12 -12 27 -33 33 -45 14 -28 14 -98 0 -126 -15 -28 -59
-76 -82 -89 -17 -9 -17 -7 -7 14 7 13 30 42 52 64 49 52 51 93 3 109 -38 13
-46 23 -43 60 1 17 -2 36 -6 44 -13 20 24 -2 50 -31z m-3092 -48 c40 -67 20
-153 -49 -213 -51 -44 -51 -32 0 34 71 92 69 117 -7 133 -22 5 -29 14 -34 43
-5 29 -3 39 11 50 24 17 51 0 79 -47z m6302 -97 c19 -44 17 -92 -4 -132 -20
-37 -83 -86 -122 -95 -14 -3 -19 -3 -12 0 6 3 10 9 7 14 -3 4 20 29 51 55 64
55 70 87 19 115 -31 17 -41 45 -31 86 5 17 11 21 23 17 12 -5 14 -3 8 8 -5 8
4 3 20 -11 15 -14 34 -39 41 -57z m-679 -249 c-3 -3 -12 -4 -19 -1 -8 3 -5 6
6 6 11 1 17 -2 13 -5z m-3279 -551 c-130 -2 -346 -2 -480 0 -134 1 -27 2 237
2 264 0 373 -1 243 -2z m181 -43 c36 -5 68 -7 73 -4 4 3 8 -11 8 -31 0 -47 12
-69 71 -130 46 -49 119 -158 119 -179 0 -6 -5 -4 -10 4 -7 10 -10 11 -10 2 0
-19 -59 -50 -120 -63 -30 -6 -59 -15 -65 -19 -5 -4 -32 -12 -58 -19 -27 -6
-72 -25 -100 -41 -52 -29 -53 -29 -117 -16 -36 8 -103 17 -150 21 -139 11
-214 31 -318 84 -69 35 -117 52 -166 60 -79 11 -127 43 -163 106 -24 42 -47
156 -38 184 8 25 72 42 185 50 124 9 776 2 859 -9z m2681 -31 c85 -5 189 -9
230 -10 41 0 68 -3 60 -6 -15 -6 -507 13 -725 27 -96 7 -80 7 80 4 110 -3 270
-9 355 -15z m-45 -34 c256 -12 422 -25 488 -38 6 -1 16 -16 23 -33 6 -18 27
-51 46 -75 39 -49 103 -168 94 -177 -3 -3 -6 1 -7 9 -1 8 -4 3 -8 -10 -12 -44
-49 -60 -182 -80 -70 -11 -144 -28 -165 -39 -59 -30 -169 -60 -198 -55 -14 3
-26 1 -26 -3 0 -5 -12 -10 -27 -10 -16 -1 -58 -5 -94 -9 -87 -10 -155 10 -251
75 -59 40 -86 51 -142 60 -76 12 -110 27 -143 62 -29 30 -53 89 -53 127 0 17
-5 62 -12 101 -8 48 -9 73 -2 80 32 32 215 36 659 15z m448 8 c-18 -2 -48 -2
-65 0 -18 2 -4 4 32 4 36 0 50 -2 33 -4z m2135 -130 c-16 -2 -40 -2 -55 0 -16
2 -3 4 27 4 30 0 43 -2 28 -4z m422 -29 c594 -46 1112 -92 1119 -99 6 -7 -23
-6 -127 5 -133 14 -878 76 -1137 95 -121 9 -227 18 -235 20 -22 6 170 -4 380
-21z m762 -618 c-17 -19 -33 -44 -37 -56 -4 -12 -9 -19 -12 -17 -7 8 16 48 45
80 37 39 40 34 4 -7z m287 13 c20 -11 48 -36 62 -55 23 -29 26 -40 19 -70 -10
-44 -52 -90 -97 -105 -40 -13 -92 1 -119 34 -14 16 -15 18 -2 9 14 -11 16 -11
12 5 -6 23 31 73 55 73 9 0 25 6 35 13 18 13 18 14 0 32 -11 10 -18 20 -16 22
8 11 -2 22 -28 33 -64 27 -130 -34 -130 -120 0 -50 16 -80 73 -135 66 -64 128
-78 223 -51 30 9 42 10 30 3 -42 -26 -96 -80 -126 -128 -53 -82 -83 -76 -210
39 -60 53 -90 120 -90 196 0 116 113 216 254 225 10 0 35 -8 55 -20z m-121
-65 c-16 -8 -30 -26 -34 -42 -9 -44 -12 -49 -13 -21 -1 31 34 79 57 79 11 -1
8 -6 -10 -16z m202 -170 c-8 -8 -23 -20 -34 -25 -13 -7 -9 -1 9 15 34 29 43
33 25 10z m-83 -50 c-3 -3 -12 -4 -19 -1 -8 3 -5 6 6 6 11 1 17 -2 13 -5z
m112 -97 c-13 -13 -26 -21 -29 -19 -5 4 38 42 48 42 3 0 -6 -10 -19 -23z m132
-67 c19 -6 46 -21 60 -36 19 -21 20 -24 5 -18 -15 6 -17 4 -11 -7 4 -8 -6 0
-24 16 -28 26 -40 30 -87 30 -46 0 -52 2 -37 13 20 15 46 15 94 2z m-63 -57
c-15 -2 -29 -12 -31 -21 -3 -12 -5 -10 -6 6 -1 19 4 22 32 21 29 -2 29 -2 5
-6z m351 -153 c-1 -8 -5 0 -10 18 -5 17 -13 32 -18 32 -10 0 -31 46 -31 70 0
10 6 20 13 23 11 4 47 -107 46 -143z m-278 43 c7 -7 6 -14 -2 -19 -7 -4 -9 -3
-5 4 3 6 2 13 -4 17 -5 3 -9 18 -9 33 l2 27 4 -25 c3 -14 9 -30 14 -37z m136
-23 c5 -44 4 -50 -13 -50 -10 0 -26 5 -34 10 -13 8 -12 10 3 10 9 0 17 7 17
15 0 8 5 15 11 15 6 0 8 9 4 23 -4 12 -9 31 -11 42 -5 18 -4 18 6 3 6 -10 14
-40 17 -68z m265 23 c15 -18 3 -16 -16 3 -9 8 -16 25 -15 37 0 21 1 21 10 -2
5 -14 15 -31 21 -38z m991 7 c-12 -5 -26 -17 -32 -27 -9 -16 -10 -16 -11 -1 0
18 26 38 50 37 9 0 6 -4 -7 -9z m-744 -90 c-7 -39 -16 -73 -20 -76 -12 -7
-144 23 -176 40 -15 8 -22 15 -15 16 7 0 11 4 8 8 -2 4 22 8 53 7 55 0 61 2
105 43 26 24 50 41 53 39 3 -3 -1 -38 -8 -77z m248 50 c24 -10 64 -39 90 -63
27 -24 62 -51 79 -60 17 -9 37 -24 45 -33 10 -14 6 -13 -18 4 -33 23 -53 28
-53 13 0 -12 -88 -31 -141 -31 -71 0 -180 22 -170 34 5 6 12 27 16 46 4 19 14
52 22 73 14 33 19 37 52 37 20 0 55 -9 78 -20z m-211 -120 c0 -12 -4 -16 -9
-11 -5 5 -6 14 -3 20 10 15 12 14 12 -9z"/>
<path d="M12222 1758 c-16 -16 -15 -35 3 -42 16 -6 35 22 28 42 -6 15 -16 15
-31 0z"/>
</g>
</svg>
