<svg version="1.0" xmlns="http://www.w3.org/2000/svg"
width="144px" height="144px" 
 viewBox="0 0 200.000000 200.000000"
 preserveAspectRatio="xMidYMid meet">
<g transform="translate(0.000000,200.000000) scale(0.100000,-0.100000)"
fill="#FFC107">
<path d="M1112 1681 c-7 -4 -66 -231 -132 -506 -66 -274 -145 -590 -175 -703
-30 -112 -55 -212 -55 -221 0 -20 129 -77 152 -68 8 2 22 40 32 83 45 199 165
680 246 995 50 191 90 349 90 353 0 15 -143 76 -158 67z"/>
<path d="M475 1240 c-121 -100 -229 -174 -347 -239 l-78 -43 0 -93 0 -93 88
-47 c117 -64 179 -107 323 -225 67 -55 128 -100 135 -100 8 0 30 32 49 70 28
55 33 75 25 89 -27 51 -206 187 -357 272 l-82 46 53 22 c129 53 397 257 395
300 -1 34 -54 126 -74 129 -13 2 -59 -29 -130 -88z"/>
<path d="M1360 1270 c-16 -33 -30 -66 -30 -75 0 -48 181 -190 342 -269 l108
-54 -32 -13 c-53 -22 -320 -204 -370 -253 -27 -25 -48 -54 -48 -63 0 -10 17
-48 38 -86 l38 -67 36 27 c20 16 69 55 109 89 96 79 213 159 322 218 l87 48 0
93 0 93 -68 34 c-98 50 -220 133 -357 242 -65 53 -125 96 -132 96 -7 0 -26
-27 -43 -60z"/>
</g>
</svg>
